<svg width="512" height="512" viewBox="0 0 512 512" fill="none" xmlns="http://www.w3.org/2000/svg">
<path d="M463.257 38.1029C450.827 58.7072 440.322 77.0211 428.969 94.6537C328.149 250.178 189.556 362.48 27.6435 448.294C23.4786 450.571 19.006 452.234 14.3648 453.23C9.26059 453.23 0.424526 431.51 0.424526 411.656C0.394908 292.088 0.355417 155.637 0 36H442.583C448.339 36 454.065 37.1551 463.257 38.1029Z" fill="#012168"/>
<path d="M104.156 446.786C119.3 437.604 134.712 428.926 149.758 419.586C201.553 386.696 250.413 349.397 295.795 308.104C366.69 243.696 428.009 169.479 477.887 87.7058C483.252 78.4891 487.959 68.9053 491.975 59.0256C496.625 60.0129 512.095 77.843 511.868 106.987C512.165 220.079 511.868 476.453 511.868 476.453C380.65 476.453 57.1517 474.577 46.4497 476.749C62.6409 466.916 88.0631 456.55 104.156 446.786Z" fill="#6CC049"/>
</svg>
